HIERARCHY
ROOT Root
{
  OFFSET 0.0 0.0 0.0
  CHANNELS 6 Xposition Yposition Zposition Zrotation Yrotation Xrotation
  JOINT Hips
  {
    OFFSET 0.0 100.0 0.0
    CHANNELS 6 Xposition Yposition Zposition Zrotation Yrotation Xrotation
    JOINT Spine1
    {
      OFFSET -0.013727 5.003763 -0.053727
      CHANNELS 3 Zrotation Yrotation Xrotation
      JOINT Spine2
      {
        OFFSET -0.0 7.125301 -0.029825
        CHANNELS 3 Zrotation Yrotation Xrotation
        JOINT Chest
        {
          OFFSET -1e-06 7.550063 -0.815971
          CHANNELS 3 Zrotation Yrotation Xrotation
          JOINT Neck1
          {
            OFFSET -0.181677 26.311295 -0.553348
            CHANNELS 3 Zrotation Yrotation Xrotation
            JOINT Neck2
            {
              OFFSET -3e-06 7.709397 2.302585
              CHANNELS 3 Zrotation Yrotation Xrotation
              JOINT Head
              {
                OFFSET -5e-06 6.128916 1.953709
                CHANNELS 3 Zrotation Yrotation Xrotation
                JOINT HeadEnd
                {
                  OFFSET 0.003598 16.065403 -1.835379
                  CHANNELS 3 Zrotation Yrotation Xrotation
                }
                JOINT Jaw
                {
                  OFFSET 0.002637 0.475592 3.094941
                  CHANNELS 3 Zrotation Yrotation Xrotation
                }
                JOINT LeftEye
                {
                  OFFSET 3.206381 5.380205 7.586883
                  CHANNELS 3 Zrotation Yrotation Xrotation
                }
                JOINT RightEye
                {
                  OFFSET -3.22244 5.361869 7.558234
                  CHANNELS 3 Zrotation Yrotation Xrotation
                }
              }
            }
          }
          JOINT LeftShoulder
          {
            OFFSET 1.621652 23.237164 5.113413
            CHANNELS 3 Zrotation Yrotation Xrotation
            JOINT LeftArm
            {
              OFFSET 14.919846 2e-06 -5.502326
              CHANNELS 3 Zrotation Yrotation Xrotation
              JOINT LeftForeArm
              {
                OFFSET 28.739307 0.0 -0.002588
                CHANNELS 3 Zrotation Yrotation Xrotation
                JOINT LeftHand
                {
                  OFFSET 27.093981 -1e-06 0.002609
                  CHANNELS 3 Zrotation Yrotation Xrotation
                  JOINT LeftHandThumb1
                  {
                    OFFSET 2.276482 -1.392045 3.191413
                    CHANNELS 3 Zrotation Yrotation Xrotation
                    JOINT LeftHandThumb2
                    {
                      OFFSET 4.012836 -1.828127 1.641654
                      CHANNELS 3 Zrotation Yrotation Xrotation
                      JOINT LeftHandThumb3
                      {
                        OFFSET 2.798515 0.0 -3e-06
                        CHANNELS 3 Zrotation Yrotation Xrotation
                        JOINT LeftHandThumbEnd
                        {
                          OFFSET 3.180793 -4e-06 4e-06
                          CHANNELS 3 Zrotation Yrotation Xrotation
                        }
                      }
                    }
                  }
                  JOINT LeftHandIndex1
                  {
                    OFFSET 3.247555 -0.531998 2.296169
                    CHANNELS 3 Zrotation Yrotation Xrotation
                    JOINT LeftHandIndex2
                    {
                      OFFSET 6.364578 0.01206 0.1786
                      CHANNELS 3 Zrotation Yrotation Xrotation
                      JOINT LeftHandIndex3
                      {
                        OFFSET 3.662364 0.0 0.0
                        CHANNELS 3 Zrotation Yrotation Xrotation
                        JOINT LeftHandIndex4
                        {
                          OFFSET 2.329242 4e-06 4e-06
                          CHANNELS 3 Zrotation Yrotation Xrotation
                          JOINT LeftHandIndexEnd
                          {
                            OFFSET 2.759615 -0.180537 -0.113024
                            CHANNELS 3 Zrotation Yrotation Xrotation
                          }
                        }
                      }
                    }
                  }
                  JOINT LeftHandMiddle1
                  {
                    OFFSET 3.163495 0.240981 1.000332
                    CHANNELS 3 Zrotation Yrotation Xrotation
                    JOINT LeftHandMiddle2
                    {
                      OFFSET 6.19078 -0.259278 -1.002548
                      CHANNELS 3 Zrotation Yrotation Xrotation
                      JOINT LeftHandMiddle3
                      {
                        OFFSET 4.35652 -4e-06 -1e-06
                        CHANNELS 3 Zrotation Yrotation Xrotation
                        JOINT LeftHandMiddle4
                        {
                          OFFSET 2.996877 -8e-06 0.0
                          CHANNELS 3 Zrotation Yrotation Xrotation
                          JOINT LeftHandMiddleEnd
                          {
                            OFFSET 2.304287 -0.294569 -0.031741
                            CHANNELS 3 Zrotation Yrotation Xrotation
                          }
                        }
                      }
                    }
                  }
                  JOINT LeftHandRing1
                  {
                    OFFSET 2.882643 -0.053652 -0.322543
                    CHANNELS 3 Zrotation Yrotation Xrotation
                    JOINT LeftHandRing2
                    {
                      OFFSET 5.854541 -0.486202 -1.373841
                      CHANNELS 3 Zrotation Yrotation Xrotation
                      JOINT LeftHandRing3
                      {
                        OFFSET 4.350578 0.0 3e-06
                        CHANNELS 3 Zrotation Yrotation Xrotation
                        JOINT LeftHandRing4
                        {
                          OFFSET 2.651321 7e-06 2e-06
                          CHANNELS 3 Zrotation Yrotation Xrotation
                          JOINT LeftHandRingEnd
                          {
                            OFFSET 1.936105 0.077687 -7.1e-05
                            CHANNELS 3 Zrotation Yrotation Xrotation
                          }
                        }
                      }
                    }
                  }
                  JOINT LeftHandPinky1
                  {
                    OFFSET 2.8655 -0.310005 -1.600378
                    CHANNELS 3 Zrotation Yrotation Xrotation
                    JOINT LeftHandPinky2
                    {
                      OFFSET 5.087849 -1.331141 -1.77123
                      CHANNELS 3 Zrotation Yrotation Xrotation
                      JOINT LeftHandPinky3
                      {
                        OFFSET 3.070974 4e-06 0.0
                        CHANNELS 3 Zrotation Yrotation Xrotation
                        JOINT LeftHandPinky4
                        {
                          OFFSET 1.549672 0.0 1e-06
                          CHANNELS 3 Zrotation Yrotation Xrotation
                          JOINT LeftHandPinkyEnd
                          {
                            OFFSET 1.944893 -0.157802 0.057219
                            CHANNELS 3 Zrotation Yrotation Xrotation
                          }
                        }
                      }
                    }
                  }
                }
              }
            }
          }
          JOINT RightShoulder
          {
            OFFSET -1.380118 23.180309 5.214158
            CHANNELS 3 Zrotation Yrotation Xrotation
            JOINT RightArm
            {
              OFFSET -15.037196 1.2e-05 -5.545604
              CHANNELS 3 Zrotation Yrotation Xrotation
              JOINT RightForeArm
              {
                OFFSET -28.736639 2e-06 -0.002597
                CHANNELS 3 Zrotation Yrotation Xrotation
                JOINT RightHand
                {
                  OFFSET -27.133619 -0.0 0.002613
                  CHANNELS 3 Zrotation Yrotation Xrotation
                  JOINT RightHandThumb1
                  {
                    OFFSET -2.274032 -1.383988 3.163127
                    CHANNELS 3 Zrotation Yrotation Xrotation
                    JOINT RightHandThumb2
                    {
                      OFFSET -4.011429 -1.827466 1.640914
                      CHANNELS 3 Zrotation Yrotation Xrotation
                      JOINT RightHandThumb3
                      {
                        OFFSET -2.794935 -4e-06 -3e-06
                        CHANNELS 3 Zrotation Yrotation Xrotation
                        JOINT RightHandThumbEnd
                        {
                          OFFSET -3.183852 4e-06 1e-06
                          CHANNELS 3 Zrotation Yrotation Xrotation
                        }
                      }
                    }
                  }
                  JOINT RightHandIndex1
                  {
                    OFFSET -3.253266 -0.520057 2.282866
                    CHANNELS 3 Zrotation Yrotation Xrotation
                    JOINT RightHandIndex2
                    {
                      OFFSET -6.341917 0.012471 0.178266
                      CHANNELS 3 Zrotation Yrotation Xrotation
                      JOINT RightHandIndex3
                      {
                        OFFSET -3.654871 -8e-06 -0.0
                        CHANNELS 3 Zrotation Yrotation Xrotation
                        JOINT RightHandIndex4
                        {
                          OFFSET -2.327586 0.0 1e-06
                          CHANNELS 3 Zrotation Yrotation Xrotation
                          JOINT RightHandIndexEnd
                          {
                            OFFSET -2.76179 -0.180656 -0.113078
                            CHANNELS 3 Zrotation Yrotation Xrotation
                          }
                        }
                      }
                    }
                  }
                  JOINT RightHandMiddle1
                  {
                    OFFSET -3.168106 0.246593 1.00103
                    CHANNELS 3 Zrotation Yrotation Xrotation
                    JOINT RightHandMiddle2
                    {
                      OFFSET -6.180828 -0.258836 -1.000895
                      CHANNELS 3 Zrotation Yrotation Xrotation
                      JOINT RightHandMiddle3
                      {
                        OFFSET -4.348901 0.0 -0.0
                        CHANNELS 3 Zrotation Yrotation Xrotation
                        JOINT RightHandMiddle4
                        {
                          OFFSET -3.00024 -4e-06 -2e-06
                          CHANNELS 3 Zrotation Yrotation Xrotation
                          JOINT RightHandMiddleEnd
                          {
                            OFFSET -2.30252 -0.29437 -0.031706
                            CHANNELS 3 Zrotation Yrotation Xrotation
                          }
                        }
                      }
                    }
                  }
                  JOINT RightHandRing1
                  {
                    OFFSET -2.88569 -0.067952 -0.308858
                    CHANNELS 3 Zrotation Yrotation Xrotation
                    JOINT RightHandRing2
                    {
                      OFFSET -5.854198 -0.48613 -1.373731
                      CHANNELS 3 Zrotation Yrotation Xrotation
                      JOINT RightHandRing3
                      {
                        OFFSET -4.33881 -4e-06 -0.0
                        CHANNELS 3 Zrotation Yrotation Xrotation
                        JOINT RightHandRing4
                        {
                          OFFSET -2.654903 -4e-06 4e-06
                          CHANNELS 3 Zrotation Yrotation Xrotation
                          JOINT RightHandRingEnd
                          {
                            OFFSET -1.933568 0.077527 -5.2e-05
                            CHANNELS 3 Zrotation Yrotation Xrotation
                          }
                        }
                      }
                    }
                  }
                  JOINT RightHandPinky1
                  {
                    OFFSET -2.866425 -0.342796 -1.584145
                    CHANNELS 3 Zrotation Yrotation Xrotation
                    JOINT RightHandPinky2
                    {
                      OFFSET -5.091371 -1.332055 -1.772385
                      CHANNELS 3 Zrotation Yrotation Xrotation
                      JOINT RightHandPinky3
                      {
                        OFFSET -3.062664 -4e-06 1e-06
                        CHANNELS 3 Zrotation Yrotation Xrotation
                        JOINT RightHandPinky4
                        {
                          OFFSET -1.546529 4e-06 -2e-06
                          CHANNELS 3 Zrotation Yrotation Xrotation
                          JOINT RightHandPinkyEnd
                          {
                            OFFSET -1.945119 -0.157718 0.057211
                            CHANNELS 3 Zrotation Yrotation Xrotation
                          }
                        }
                      }
                    }
                  }
                }
              }
            }
          }
        }
      }
    }
    JOINT LeftLeg
    {
      OFFSET 10.043214 -8.434526 2.595655
      CHANNELS 3 Zrotation Yrotation Xrotation
      JOINT LeftShin
      {
        OFFSET -1e-06 -43.221752 -0.802913
        CHANNELS 3 Zrotation Yrotation Xrotation
        JOINT LeftFoot
        {
          OFFSET 1e-06 -42.155094 -3.481523
          CHANNELS 3 Zrotation Yrotation Xrotation
          JOINT LeftToeBase
          {
            OFFSET 0.0 -5.059472 13.231529
            CHANNELS 3 Zrotation Yrotation Xrotation
            JOINT LeftToeEnd
            {
              OFFSET -0.009607 -1.647619 6.513017
              CHANNELS 3 Zrotation Yrotation Xrotation
            }
          }
        }
      }
    }
    JOINT RightLeg
    {
      OFFSET -10.047278 -8.29526 2.620317
      CHANNELS 3 Zrotation Yrotation Xrotation
      JOINT RightShin
      {
        OFFSET 1e-06 -43.362206 -0.805556
        CHANNELS 3 Zrotation Yrotation Xrotation
        JOINT RightFoot
        {
          OFFSET 2e-06 -42.117393 -3.478398
          CHANNELS 3 Zrotation Yrotation Xrotation
          JOINT RightToeBase
          {
            OFFSET -0.0 -5.079609 13.284196
            CHANNELS 3 Zrotation Yrotation Xrotation
            JOINT RightToeEnd
            {
              OFFSET 0.009532 -1.634378 6.460591
              CHANNELS 3 Zrotation Yrotation Xrotation
            }
          }
        }
      }
    }
  }
}
MOTION
Frames: 4
Frame Time: 0.03333333333333333
0.0 0.0 0.0 0.0 -0.0 0.0 3.15789 96.869774 -4.375648 2.983538 0.237333 -9.869669 -2.515227 0.645106 3.234069 -1.348531 -0.524957 -3.375203 -3.900392 -1.764766 21.129883 23.854424 -6.410847 1.195445 -7.886234 -23.542664 -1.50925 0.087493 -30.779255 -23.695484 7.7e-05 -2.2e-05 7e-06 0.097801 0.205289 0.104678 0.692974 -3.625146 -10.682674 -0.504617 4.008701 -10.623292 -9.708036 -3.363329 15.854869 -57.046188 1.223042 11.139727 3.534599 -61.039593 -2.467406 25.452549 -8.551985 14.948019 -5.88211 9.861291 0.702589 -10.936873 -0.360571 7.156205 0.0 8.774827 1e-06 -15.738699 18.673866 6.496319 -1.844033 2.498506 -2.507278 -10.163597 4.678947 4.62111 -20.976027 1e-06 -2e-06 -21.226294 2.451698 -3.594005 0.0 -6e-06 1e-06 -1.362683 2.240798 -0.746323 -21.334913 0.584911 3.008321 -13.821214 -1e-06 -1e-06 -23.887175 -0.24908 -0.839488 -59.498791 2.477022 -1.206456 -0.294026 1.679688 0.833257 -14.218208 0.093217 1.300579 -34.212048 -0.287561 0.967163 -20.033215 0.964537 1.212842 0.0 -0.0 0.0 -3.44039 0.788235 0.501657 -15.928185 -3.167307 2.999703 -6.338827 2e-06 -0.0 -18.123447 3.648185 -4.905675 -5e-06 -0.0 -2e-06 12.575836 7.08905 14.596859 52.563721 2.662343 19.526987 -0.644624 54.183315 -0.422754 -2.358193 1.477241 2.458571 2.243543 -5.255037 -3.180156 14.282887 -0.826594 6.952497 -1e-06 -12.690601 -2e-06 15.685417 -17.394592 2.736588 1.665665 -1.955921 -2.8783 4.727798 -4.170588 4.993924 11.020524 1e-06 -3e-06 12.109052 -3.735716 -2.866787 0.0 0.0 -1e-06 1.291986 -1.92855 -1.49809 14.800125 0.567467 3.865604 14.242571 -1.341736 -6.660661 19.631969 0.143928 -0.648246 49.458969 -0.638558 -6.242565 0.353028 -1.511152 -0.031941 20.222788 3.684308 2.316627 18.78727 4e-06 -4e-06 10.751626 -0.47987 1.397904 1e-06 1e-06 -1e-06 3.273806 0.305947 -0.580111 21.486809 11.83037 2.266128 8.162926 4e-06 -3e-06 18.399076 -3.798985 -4.940578 3e-06 0.0 -1e-06 12.092418 29.413458 5.766998 -0.060185 -0.255963 21.74194 -12.063051 19.394361 -11.990995 1.679664 -2.066222 -0.287076 0.0 1e-06 2e-06 -16.991611 5.909772 -5.217157 0.077402 0.369108 15.16394 14.601614 10.249954 -1.321769 -1.428323 1.045446 -0.426273 -0.0 -0.0 -1e-06 
0.0 0.0 0.0 0.0 -0.0 0.0 3.318802 96.871872 -4.342793 2.963444 0.027063 -10.036778 -2.507924 0.637873 3.278785 -1.318039 -0.488144 -3.367649 -3.978078 -1.775301 21.087925 23.922817 -6.509697 1.328725 -7.837885 -23.597143 -1.526575 0.020652 -30.786156 -23.50898 7.7e-05 -2.5e-05 6e-06 0.091341 0.220766 0.088609 0.692464 -3.609018 -10.69136 -0.516913 4.022506 -10.645067 -9.788473 -3.240393 15.96813 -56.9757 1.19245 10.650504 3.350663 -60.936142 -2.468717 25.418972 -8.959692 15.162143 -5.882105 9.861285 0.70259 -10.936868 -0.360575 7.156204 -2e-06 8.774824 -2e-06 -15.739099 18.62121 6.492476 -1.844033 2.498504 -2.507278 -10.163597 4.678944 4.621107 -20.976021 -4e-06 1e-06 -21.226286 2.451694 -3.594004 1e-06 -4e-06 -0.0 -1.362681 2.240798 -0.746325 -21.334911 0.58491 3.00832 -13.821213 -3e-06 -1e-06 -23.887167 -0.249079 -0.839486 -59.64537 2.418336 -1.1114 -0.294027 1.679688 0.833256 -14.218207 0.093216 1.300578 -34.212048 -0.287565 0.967165 -20.033211 0.964536 1.21284 0.0 1e-06 1e-06 -3.440387 0.788233 0.501655 -15.928185 -3.167306 2.999705 -6.338827 1e-06 -0.0 -18.123446 3.648182 -4.905673 -4e-06 0.0 -2e-06 12.483317 6.943227 14.662232 52.672371 2.62194 19.68788 -0.609503 54.044334 -0.383055 -2.344373 1.800758 2.35769 2.24354 -5.255035 -3.18016 14.282893 -0.826592 6.9525 -4e-06 -12.690605 -0.0 15.685296 -17.40736 2.749513 1.665667 -1.955921 -2.878298 4.727799 -4.170588 4.993925 11.020528 3e-06 -1e-06 12.109055 -3.735716 -2.866783 0.0 0.0 1e-06 1.291987 -1.92855 -1.498087 14.800132 0.567468 3.865608 14.242575 -1.341734 -6.660656 19.631971 0.143929 -0.648243 49.585358 -0.623169 -6.16678 0.35303 -1.511149 -0.03194 20.222799 3.68431 2.316629 18.787279 4e-06 1e-06 10.751631 -0.479867 1.397904 0.0 1e-06 1e-06 3.273806 0.305949 -0.580113 21.486818 11.830377 2.266133 8.16293 3e-06 -2e-06 18.399084 -3.798982 -4.940573 4e-06 -0.0 0.0 12.204877 29.576885 6.103326 -0.081443 -0.292414 21.694241 -12.058661 19.3946 -12.095232 1.682111 -2.076584 -0.34478 0.0 -0.0 2e-06 -17.015421 6.137548 -4.900738 0.070166 0.36657 14.748496 14.667367 10.175195 -1.136872 -1.434085 1.032568 -0.487999 -0.0 -0.0 -1e-06 
0.0 0.0 0.0 0.0 -0.0 0.0 3.460123 96.852005 -4.33128 2.969388 -0.12999 -10.186368 -2.529642 0.645911 3.293218 -1.311689 -0.487233 -3.364952 -4.034342 -1.746034 21.09288 24.107805 -6.593786 1.469454 -7.814965 -23.686394 -1.568934 0.009051 -30.826468 -23.403639 7.7e-05 -2.2e-05 7e-06 0.091949 0.243187 0.077333 0.692256 -3.587593 -10.724801 -0.515423 4.045663 -10.686509 -9.851309 -3.175673 16.008307 -56.981861 1.212988 10.133609 3.225212 -60.868809 -2.494804 25.410856 -9.234345 15.050713 -5.88211 9.86129 0.70259 -10.936877 -0.360574 7.156207 -2e-06 8.77483 -2e-06 -15.753458 18.604374 6.475209 -1.844035 2.498507 -2.507281 -10.163604 4.678946 4.621111 -20.976038 -4e-06 2e-06 -21.226301 2.451695 -3.594002 -0.0 -6e-06 0.0 -1.362682 2.240799 -0.746324 -21.334925 0.58491 3.00832 -13.82122 -2e-06 0.0 -23.887182 -0.249081 -0.839487 -59.735878 2.405331 -1.070342 -0.294025 1.679688 0.833257 -14.218215 0.093215 1.300579 -34.212074 -0.287565 0.967165 -20.033226 0.964535 1.212842 0.0 -0.0 1e-06 -3.44039 0.788233 0.501655 -15.928194 -3.16731 2.999705 -6.338829 0.0 2e-06 -18.123457 3.648184 -4.905673 -5e-06 -0.0 -1e-06 12.45513 6.848744 14.698766 52.734684 2.506048 19.818102 -0.587758 53.941692 -0.336963 -2.361796 2.073789 2.412246 2.243544 -5.255039 -3.180159 14.282899 -0.826595 6.952503 -3e-06 -12.690607 1e-06 15.677062 -17.392155 2.769714 1.665668 -1.955922 -2.878298 4.727801 -4.170588 4.993927 11.020534 2e-06 -2e-06 12.109058 -3.735716 -2.866785 -1e-06 0.0 -1e-06 1.291986 -1.928548 -1.498088 14.800138 0.567468 3.865606 14.242581 -1.341736 -6.660661 19.631981 0.143927 -0.648246 49.620216 -0.616923 -6.138332 0.353029 -1.511149 -0.031941 20.222801 3.684309 2.31663 18.787285 5e-06 -1e-06 10.751634 -0.479867 1.397906 -0.0 1e-06 -0.0 3.273809 0.305947 -0.58011 21.486824 11.830378 2.266129 8.16293 1e-06 -2e-06 18.399094 -3.798983 -4.940578 2e-06 0.0 -1e-06 12.257663 29.691824 6.318312 -0.087817 -0.315392 21.7722 -12.005841 19.396132 -12.217647 1.685616 -2.092651 -0.342551 0.0 -0.0 2e-06 -17.081545 6.257155 -4.713015 0.075228 0.36332 14.562418 14.802341 10.193982 -1.023038 -1.436614 1.032175 -0.484833 0.0 0.0 -1e-06 
0.0 0.0 0.0 0.0 -0.0 0.0 3.542976 96.828644 -4.316635 2.972628 -0.267573 -10.30878 -2.561446 0.667727 3.290702 -1.314962 -0.48958 -3.370456 -4.073274 -1.695225 21.108608 24.296824 -6.704133 1.597359 -7.771527 -23.710907 -1.604829 0.012303 -30.842525 -23.330488 7.7e-05 -2.3e-05 7e-06 0.093729 0.265254 0.075537 0.690298 -3.5685 -10.751696 -0.509887 4.070283 -10.71998 -9.891129 -3.129323 15.997965 -57.039089 1.186596 9.616217 3.039284 -60.796505 -2.410908 25.472979 -9.465734 14.874523 -5.882108 9.861285 0.702589 -10.936872 -0.360574 7.156204 -2e-06 8.774822 -0.0 -15.747481 18.602571 6.466415 -1.844031 2.498505 -2.507278 -10.163597 4.678946 4.621109 -20.976023 -2e-06 0.0 -21.226286 2.451695 -3.594001 0.0 -6e-06 -0.0 -1.362681 2.240798 -0.746325 -21.334911 0.584911 3.008322 -13.821211 -3e-06 -1e-06 -23.887167 -0.24908 -0.839484 -59.76762 2.410423 -1.046421 -0.294026 1.679688 0.833256 -14.218206 0.093215 1.300579 -34.212048 -0.287564 0.96717 -20.033211 0.964539 1.212843 0.0 -1e-06 1e-06 -3.440388 0.788233 0.501654 -15.928185 -3.167309 2.999707 -6.338828 -1e-06 0.0 -18.123446 3.648183 -4.905672 -6e-06 0.0 -2e-06 12.452941 6.780235 14.735203 52.790184 2.400893 19.982088 -0.630519 53.849136 -0.326223 -2.312338 2.287601 2.594255 2.243543 -5.255038 -3.18016 14.282896 -0.826597 6.952504 -3e-06 -12.690608 2e-06 15.666791 -17.390287 2.7939 1.665667 -1.955924 -2.8783 4.727801 -4.17059 4.993926 11.020531 1e-06 -2e-06 12.109056 -3.735717 -2.866784 0.0 -0.0 0.0 1.291986 -1.928548 -1.498088 14.800134 0.567467 3.865608 14.242579 -1.341736 -6.660662 19.631975 0.143925 -0.648246 49.62978 -0.632064 -6.125839 0.353029 -1.51115 -0.031939 20.222799 3.68431 2.316631 18.787281 4e-06 -2e-06 10.751632 -0.47987 1.397907 1e-06 1e-06 1e-06 3.273808 0.305948 -0.580113 21.48682 11.830378 2.266129 8.162931 2e-06 -2e-06 18.399092 -3.798986 -4.940577 3e-06 -1e-06 -0.0 12.320629 29.764824 6.485653 -0.086501 -0.322341 21.856594 -11.986814 19.446062 -12.32015 1.684447 -2.105573 -0.345101 0.0 -1e-06 2e-06 -17.110682 6.359565 -4.622621 0.077487 0.358015 14.538362 14.90467 10.217546 -0.98906 -1.43671 1.031664 -0.478527 -0.0 -0.0 -1e-06 
